<svg xmlns="http://www.w3.org/2000/svg" width="19.936" height="18.897" viewBox="0 0 19.936 18.897">
  <defs>
    <style>
      .cls-1 {
        fill: #3d3d3d;
      }
    </style>
  </defs>
  <g id="briefcase" transform="translate(0 -34.909)">
    <g id="Group_307" data-name="Group 307" transform="translate(0.453 45.352)">
      <g id="Group_306" data-name="Group 306">
        <path id="Path_487" data-name="Path 487" class="cls-1" d="M30.213,279.273a.45.45,0,0,0-.453.5v6.465a.45.45,0,0,1-.453.5H13a.45.45,0,0,1-.453-.5V279.77a.455.455,0,1,0-.906,0v6.465A1.4,1.4,0,0,0,13,287.727H29.307a1.4,1.4,0,0,0,1.359-1.492V279.77A.45.45,0,0,0,30.213,279.273Z" transform="translate(-11.637 -279.273)"/>
      </g>
    </g>
    <g id="Group_309" data-name="Group 309" transform="translate(0 38.39)">
      <g id="Group_308" data-name="Group 308">
        <path id="Path_488" data-name="Path 488" class="cls-1" d="M18.576,116.364H1.359A1.4,1.4,0,0,0,0,117.856v3.183a1.47,1.47,0,0,0,1.042,1.442l7.113,1.74v1.591a.45.45,0,0,0,.453.5h2.718a.45.45,0,0,0,.453-.5v-1.591l7.113-1.74a1.47,1.47,0,0,0,1.042-1.442v-3.183A1.4,1.4,0,0,0,18.576,116.364Zm-7.7,8.951H9.062v-1.989h1.812Zm8.155-4.277a.476.476,0,0,1-.362.5l-6.887,1.691v-.4a.45.45,0,0,0-.453-.5H8.609a.45.45,0,0,0-.453.5v.4l-6.887-1.691a.476.476,0,0,1-.362-.5v-3.183a.45.45,0,0,1,.453-.5H18.576a.45.45,0,0,1,.453.5Z" transform="translate(0 -116.364)"/>
      </g>
    </g>
    <g id="Group_311" data-name="Group 311" transform="translate(6.343 34.909)">
      <g id="Group_310" data-name="Group 310">
        <path id="Path_489" data-name="Path 489" class="cls-1" d="M168.8,34.909h-4.531a1.4,1.4,0,0,0-1.359,1.492v.5a.455.455,0,1,0,.906,0v-.5a.45.45,0,0,1,.453-.5H168.8a.45.45,0,0,1,.453.5v.5a.455.455,0,1,0,.906,0v-.5A1.4,1.4,0,0,0,168.8,34.909Z" transform="translate(-162.909 -34.909)"/>
      </g>
    </g>
  </g>
</svg>
