<svg xmlns="http://www.w3.org/2000/svg" width="19.634" height="18.407" viewBox="0 0 19.634 18.407">
  <defs>
    <style>
      .cls-1 {
        fill: #9d8127;
      }
    </style>
  </defs>
  <g id="bullhorn" transform="translate(0 -15.998)">
    <g id="Group_301" data-name="Group 301" transform="translate(2.301 22.901)">
      <g id="Group_300" data-name="Group 300">
        <path id="Path_463" data-name="Path 463" class="cls-1" d="M62.876,196h-2.3a.575.575,0,0,0-.575.575.569.569,0,0,0,.575.568h2.3a.569.569,0,0,0,.575-.568A.575.575,0,0,0,62.876,196Z" transform="translate(-60 -196.002)"/>
      </g>
    </g>
    <g id="Group_303" data-name="Group 303" transform="translate(2.301 25.201)">
      <g id="Group_302" data-name="Group 302">
        <path id="Path_464" data-name="Path 464" class="cls-1" d="M62.876,256h-2.3a.575.575,0,0,0-.575.575.569.569,0,0,0,.575.568h2.3a.569.569,0,0,0,.575-.568A.575.575,0,0,0,62.876,256Z" transform="translate(-60 -256.002)"/>
      </g>
    </g>
    <g id="Group_305" data-name="Group 305" transform="translate(0 15.998)">
      <g id="Group_304" data-name="Group 304">
        <path id="Path_465" data-name="Path 465" class="cls-1" d="M17.333,21.808V17.724A1.726,1.726,0,0,0,13.9,17.45l-2.63,1.9-.006,0A6.37,6.37,0,0,1,7.5,20.6H2.876A2.879,2.879,0,0,0,0,23.476v2.3a2.879,2.879,0,0,0,2.876,2.876l.575-.008v4.034a1.726,1.726,0,0,0,3.451,0V30.954h.575A1.728,1.728,0,0,0,9.2,29.228v-.333a6.348,6.348,0,0,1,2.071,1.023l.006,0,2.631,1.92a1.725,1.725,0,0,0,3.422-.314V27.444a2.876,2.876,0,0,0,0-5.636ZM5.752,32.679a.575.575,0,0,1-1.15,0V28.645h1.15ZM2.876,27.5A1.728,1.728,0,0,1,1.15,25.777v-2.3a1.734,1.734,0,0,1,1.726-1.733H6.9V27.5Zm5.177,1.726a.576.576,0,0,1-.575.575H6.9V28.645a10.569,10.569,0,0,1,1.15.035ZM13.889,30.4,11.961,29a7.533,7.533,0,0,0-3.908-1.47v-5.8a7.535,7.535,0,0,0,3.9-1.449l1.939-1.395V30.4Zm2.3,1.132a.582.582,0,0,1-.583.575.576.576,0,0,1-.575-.575V17.724a.576.576,0,0,1,.575-.575.582.582,0,0,1,.583.575Zm1.143-5.276V23a1.725,1.725,0,0,1,0,3.253Z" transform="translate(0 -15.998)"/>
      </g>
    </g>
  </g>
</svg>
