<svg xmlns="http://www.w3.org/2000/svg" width="3.794" height="15.541" viewBox="0 0 3.794 15.541">
    <defs>
        <style>
            .cls-1{fill:#bec3c8}
        </style>
    </defs>
    <g id="Group_88" data-name="Group 88" transform="translate(753.682 2476.158)">
        <g id="Group_85" data-name="Group 85" transform="translate(-753.682 -2476.158)">
            <path id="Path_257" d="M-751.785-2476.158a1.9 1.9 0 0 0-1.9 1.9 1.9 1.9 0 0 0 1.9 1.9 1.9 1.9 0 0 0 1.9-1.9 1.9 1.9 0 0 0-1.9-1.9z" class="cls-1" data-name="Path 257" transform="translate(753.682 2476.158)"/>
        </g>
        <g id="Group_86" data-name="Group 86" transform="translate(-753.682 -2464.411)">
            <path id="Path_258" d="M-753.682-2446.261a1.9 1.9 0 0 0 1.9 1.9 1.9 1.9 0 0 0 1.9-1.9 1.9 1.9 0 0 0-1.9-1.9 1.9 1.9 0 0 0-1.9 1.9z" class="cls-1" data-name="Path 258" transform="translate(753.682 2448.158)"/>
        </g>
        <g id="Group_87" data-name="Group 87" transform="translate(-753.682 -2470.284)">
            <path id="Path_259" d="M-753.682-2460.261a1.9 1.9 0 0 0 1.9 1.9 1.9 1.9 0 0 0 1.9-1.9 1.9 1.9 0 0 0-1.9-1.9 1.9 1.9 0 0 0-1.9 1.9z" class="cls-1" data-name="Path 259" transform="translate(753.682 2462.158)"/>
        </g>
    </g>
</svg>
