<svg xmlns="http://www.w3.org/2000/svg" id="files_1_" width="16.137" height="16.137" data-name="files (1)" viewBox="0 0 16.137 16.137">
    <defs>
        <style>
            .cls-1{fill:#878787}
        </style>
    </defs>
    <g id="Group_264" data-name="Group 264">
        <g id="Group_263" data-name="Group 263">
            <path id="Path_431" d="M1.009 14.624V1.513a.5.5 0 0 1 .5-.5h7.568v2.013a1.009 1.009 0 0 0 1.009 1.009H12.1v1.512h1.009V3.53a.5.5 0 0 0-.146-.358L9.94.146A.5.5 0 0 0 9.582 0H1.513A1.513 1.513 0 0 0 0 1.513v13.111a1.513 1.513 0 0 0 1.513 1.513h3.53v-1.008h-3.53a.5.5 0 0 1-.504-.505z" class="cls-1" data-name="Path 431"/>
            <path id="Path_432" d="M95.276 63.517h-1.009v1.009h1.009v1.009h-2.017v-3.026h3.026a1.009 1.009 0 0 0-1.009-1.009h-2.017a1.009 1.009 0 0 0-1.009 1.009v3.026a1.009 1.009 0 0 0 1.009 1.009h2.017a1.009 1.009 0 0 0 1.009-1.009v-1.009a1.009 1.009 0 0 0-1.009-1.009z" class="cls-1" data-name="Path 432" transform="translate(-80.147 -53.431)"/>
            <path id="Path_433" d="M64.021 61.5H62a.5.5 0 0 0-.5.5v4.539h1.009V65.03h1.513a1.009 1.009 0 0 0 1.009-1.009v-1.512a1.009 1.009 0 0 0-1.01-1.009zm0 2.521h-1.512v-1.512h1.513z" class="cls-1" data-name="Path 433" transform="translate(-53.431 -53.431)"/>
            <path id="Path_434" d="M36.611 65.534h-2.017v1.009h2.017a1.009 1.009 0 0 0 1.009-1.009V61.5h-1.009z" class="cls-1" data-name="Path 434" transform="translate(-30.055 -53.431)"/>
        </g>
    </g>
</svg>
