<svg id="business-and-finance" xmlns="http://www.w3.org/2000/svg" width="17.335" height="20.021" viewBox="0 0 17.335 20.021">
  <defs>
    <style>
      .cls-1 {
        fill: #2c82a1;
      }
    </style>
  </defs>
  <path id="Path_466" data-name="Path 466" class="cls-1" d="M15.643,0H1.693A1.84,1.84,0,0,0,0,1.955V18.066a1.84,1.84,0,0,0,1.693,1.955h13.95a1.84,1.84,0,0,0,1.693-1.955V1.955A1.84,1.84,0,0,0,15.643,0Zm1.016,18.066a1.1,1.1,0,0,1-1.016,1.173H1.693A1.1,1.1,0,0,1,.677,18.066V1.955A1.1,1.1,0,0,1,1.693.782h13.95a1.1,1.1,0,0,1,1.016,1.173Zm0,0"/>
  <path id="Path_467" data-name="Path 467" class="cls-1" d="M63.047,412H60.339a.368.368,0,0,0-.339.391v1.564a.368.368,0,0,0,.339.391h2.709a.368.368,0,0,0,.339-.391v-1.564A.368.368,0,0,0,63.047,412Zm-.339,1.564H60.677v-.782h2.032Zm0,0" transform="translate(-57.968 -395.889)"/>
  <path id="Path_468" data-name="Path 468" class="cls-1" d="M63.047,332H60.339a.368.368,0,0,0-.339.391v1.564a.368.368,0,0,0,.339.391h2.709a.368.368,0,0,0,.339-.391v-1.564A.368.368,0,0,0,63.047,332Zm-.339,1.564H60.677v-.782h2.032Zm0,0" transform="translate(-57.968 -319.017)"/>
  <path id="Path_469" data-name="Path 469" class="cls-1" d="M63.047,252H60.339a.368.368,0,0,0-.339.391v1.564a.368.368,0,0,0,.339.391h2.709a.368.368,0,0,0,.339-.391v-1.564A.368.368,0,0,0,63.047,252Zm-.339,1.564H60.677v-.782h2.032Zm0,0" transform="translate(-57.968 -242.146)"/>
  <path id="Path_470" data-name="Path 470" class="cls-1" d="M209.047,412h-2.709a.368.368,0,0,0-.339.391v1.564a.368.368,0,0,0,.339.391h2.709a.368.368,0,0,0,.339-.391v-1.564A.368.368,0,0,0,209.047,412Zm-.339,1.564h-2.031v-.782h2.031Zm0,0" transform="translate(-199.025 -395.889)"/>
  <path id="Path_471" data-name="Path 471" class="cls-1" d="M209.047,332h-2.709a.368.368,0,0,0-.339.391v1.564a.368.368,0,0,0,.339.391h2.709a.368.368,0,0,0,.339-.391v-1.564A.368.368,0,0,0,209.047,332Zm-.339,1.564h-2.031v-.782h2.031Zm0,0" transform="translate(-199.025 -319.017)"/>
  <path id="Path_472" data-name="Path 472" class="cls-1" d="M209.047,252h-2.709a.368.368,0,0,0-.339.391v1.564a.368.368,0,0,0,.339.391h2.709a.368.368,0,0,0,.339-.391v-1.564A.368.368,0,0,0,209.047,252Zm-.339,1.564h-2.031v-.782h2.031Zm0,0" transform="translate(-199.025 -242.146)"/>
  <path id="Path_473" data-name="Path 473" class="cls-1" d="M355.047,412h-2.709a.368.368,0,0,0-.339.391v1.564a.368.368,0,0,0,.339.391h2.709a.368.368,0,0,0,.339-.391v-1.564A.368.368,0,0,0,355.047,412Zm-.339,1.564h-2.031v-.782h2.031Zm0,0" transform="translate(-340.082 -395.889)"/>
  <path id="Path_474" data-name="Path 474" class="cls-1" d="M355.047,332h-2.709a.368.368,0,0,0-.339.391v1.564a.368.368,0,0,0,.339.391h2.709a.368.368,0,0,0,.339-.391v-1.564A.368.368,0,0,0,355.047,332Zm-.339,1.564h-2.031v-.782h2.031Zm0,0" transform="translate(-340.082 -319.017)"/>
  <path id="Path_475" data-name="Path 475" class="cls-1" d="M355.047,252h-2.709a.368.368,0,0,0-.339.391v1.564a.368.368,0,0,0,.339.391h2.709a.368.368,0,0,0,.339-.391v-1.564A.368.368,0,0,0,355.047,252Zm-.339,1.564h-2.031v-.782h2.031Zm0,0" transform="translate(-340.082 -242.146)"/>
  <path id="Path_476" data-name="Path 476" class="cls-1" d="M60.339,166.346h1.693a.368.368,0,0,0,.339-.391v-1.564a.368.368,0,0,0-.339-.391H60.339a.368.368,0,0,0-.339.391v1.564A.368.368,0,0,0,60.339,166.346Zm.339-1.564h1.016v.782H60.677Zm0,0" transform="translate(-57.968 -157.587)"/>
  <path id="Path_477" data-name="Path 477" class="cls-1" d="M152.37,165.955v-1.564a.368.368,0,0,0-.339-.391h-1.693a.368.368,0,0,0-.339.391v1.564a.368.368,0,0,0,.339.391h1.693A.368.368,0,0,0,152.37,165.955Zm-.677-.391h-1.016v-.782h1.016Zm0,0" transform="translate(-144.921 -157.587)"/>
  <path id="Path_478" data-name="Path 478" class="cls-1" d="M242.032,164h-1.693a.368.368,0,0,0-.339.391v1.564a.368.368,0,0,0,.339.391h1.693a.368.368,0,0,0,.339-.391v-1.564A.368.368,0,0,0,242.032,164Zm-.339,1.564h-1.016v-.782h1.016Zm0,0" transform="translate(-231.874 -157.587)"/>
  <path id="Path_479" data-name="Path 479" class="cls-1" d="M72.934,40h-12.6a.368.368,0,0,0-.339.391v3.285a.368.368,0,0,0,.339.391h12.6a.368.368,0,0,0,.339-.391V40.391A.368.368,0,0,0,72.934,40ZM72.6,43.285H60.677v-2.5H72.6Zm0,0" transform="translate(-57.968 -38.436)"/>
  <path id="Path_480" data-name="Path 480" class="cls-1" d="M232.677,82.391a.342.342,0,1,1-.339-.391A.368.368,0,0,1,232.677,82.391Zm0,0" transform="translate(-224.145 -78.793)"/>
  <path id="Path_481" data-name="Path 481" class="cls-1" d="M272.677,82.391a.342.342,0,1,1-.339-.391A.368.368,0,0,1,272.677,82.391Zm0,0" transform="translate(-262.79 -78.793)"/>
  <path id="Path_482" data-name="Path 482" class="cls-1" d="M352.339,82.782h1.354a.4.4,0,0,0,0-.782h-1.354a.4.4,0,0,0,0,.782Zm0,0" transform="translate(-340.082 -78.793)"/>
  <path id="Path_483" data-name="Path 483" class="cls-1" d="M312.339,82.782a.4.4,0,1,0-.339-.391A.368.368,0,0,0,312.339,82.782Zm0,0" transform="translate(-301.436 -78.793)"/>
  <path id="Path_484" data-name="Path 484" class="cls-1" d="M352.339,188.782h1.354a.4.4,0,0,0,0-.782h-1.354a.4.4,0,0,0,0,.782Zm0,0" transform="translate(-340.082 -180.648)"/>
  <path id="Path_485" data-name="Path 485" class="cls-1" d="M432.339,188a.4.4,0,1,0,.339.391A.368.368,0,0,0,432.339,188Zm0,0" transform="translate(-417.373 -180.648)"/>
  <path id="Path_486" data-name="Path 486" class="cls-1" d="M100.677,82.391a.342.342,0,1,1-.339-.391A.368.368,0,0,1,100.677,82.391Zm0,0" transform="translate(-96.614 -78.793)"/>
</svg>
