<svg xmlns="http://www.w3.org/2000/svg" width="20.581" height="20.581" viewBox="0 0 20.581 20.581">
    <defs>
        <style>
            .cls-1{fill:#919191}
        </style>
    </defs>
    <path id="goal" d="M18.2 3.163a2.388 2.388 0 0 0-1.844 3.9l-2.433 4.056a2.377 2.377 0 0 0-2.113.617l-3.383-1.695c1-1.212 2.667-3.6 2.667-6.075a3.966 3.966 0 1 0-7.932 0c0 2.74 2.049 5.382 2.967 6.427l-3.278 5.464a2.385 2.385 0 1 0 1.378.828l3.206-5.343 3.651 1.825a2.385 2.385 0 1 0 4.214-1.225l2.43-4.055a2.385 2.385 0 1 0 .47-4.724zM7.128 1.608a2.361 2.361 0 0 1 2.358 2.359c0 2.009-1.507 4.1-2.358 5.119C6.277 8.065 4.77 5.975 4.77 3.967a2.361 2.361 0 0 1 2.358-2.359zM2.385 18.973a.777.777 0 1 1 .777-.777.778.778 0 0 1-.777.777zm11.068-4.743a.777.777 0 1 1 .777-.777.778.778 0 0 1-.777.777zM18.2 6.325a.777.777 0 1 1 .777-.777.778.778 0 0 1-.777.777zM7.128 4.971a1 1 0 1 1 1-1 1.005 1.005 0 0 1-1 1zm0 0" class="cls-1"/>
</svg>
