<svg xmlns="http://www.w3.org/2000/svg" width="20" height="18.026" viewBox="0 0 20 18.026">
  <defs>
    <style>
      .cls-1 {
        fill: #fff;
      }
    </style>
  </defs>
  <g id="Home" transform="translate(0)">
    <g id="Group_16" data-name="Group 16">
      <path id="Path_74" data-name="Path 74" class="cls-1" d="M19.618,11.442,10.735,3.837c-.028-.024-.058-.041-.087-.062s-.045-.035-.069-.05-.07-.035-.105-.052-.053-.027-.081-.038-.069-.019-.1-.029a1.156,1.156,0,0,0-.217-.035c-.024,0-.047-.006-.071-.006s-.068.006-.1.009-.066,0-.1.009-.063.017-.094.025-.069.017-.1.029-.057.027-.086.04-.068.031-.1.05-.052.037-.078.055-.051.033-.074.053L.381,11.442a1.078,1.078,0,0,0-.1,1.544,1.132,1.132,0,0,0,1.574.1l.766-.656V18.85a2.772,2.772,0,0,0,2.8,2.741H7.082A1.1,1.1,0,0,0,8.2,20.5v-5.16a.561.561,0,0,1,.565-.554h2.471a.561.561,0,0,1,.566.554v5.034a1.09,1.09,0,0,0,.023.223l.028.127a1.11,1.11,0,0,0,1.093.871h1.64a2.773,2.773,0,0,0,2.8-2.741V12.434l.765.655a1.129,1.129,0,0,0,1.574-.1A1.078,1.078,0,0,0,19.618,11.442Z" transform="translate(0 -3.566)"/>
    </g>
  </g>
</svg>
