<svg xmlns="http://www.w3.org/2000/svg" width="19.566" height="19.566" viewBox="0 0 19.566 19.566">
  <defs>
    <style>
      .cls-1 {
        fill: #310c61;
      }
    </style>
  </defs>
  <g id="key-silhouette-security-tool-interface-symbol-of-password" transform="translate(-50 -160.809)">
    <path id="Path_70" data-name="Path 70" class="cls-1" d="M13.406,0a6.154,6.154,0,0,0-6.16,6.16,7.59,7.59,0,0,0,.362,2.174L0,15.943v3.623H3.623V17.392H5.8V15.218H7.971l3.261-3.261a6.832,6.832,0,0,0,2.174.362A6.16,6.16,0,0,0,13.406,0Zm1.812,6.522a2.135,2.135,0,0,1-2.174-2.174,2.174,2.174,0,0,1,4.348,0A2.135,2.135,0,0,1,15.218,6.522Z" transform="translate(50 160.809)"/>
  </g>
</svg>
