<svg xmlns="http://www.w3.org/2000/svg" width="16.323" height="14.462" viewBox="0 0 16.323 14.462">
    <defs>
        <style>
            .cls-1{fill:#2d527c}
        </style>
    </defs>
    <path id="Path_450" d="M-4588.616-2298.1c0-.632-.366-1.143-.816-1.143h-11.119c-.451 0-.816.511-.816 1.143s.365 1.142.816 1.142h11.119c.45 0 .816-.512.816-1.142zm3.571 6.088c0-.631-.366-1.142-.816-1.142h-14.69c-.451 0-.816.511-.816 1.142s.365 1.143.816 1.143h14.69c.45 0 .816-.512.816-1.143zm-7.354 6.088c0-.631-.365-1.143-.816-1.143h-7.281c-.451 0-.816.511-.816 1.143s.365 1.143.816 1.143h7.281c.45 0 .815-.512.815-1.143z" class="cls-1" data-name="Path 450" transform="translate(4601.368 2299.243)"/>
</svg>
