<svg xmlns="http://www.w3.org/2000/svg" width="21.714" height="21.702" viewBox="0 0 21.714 21.702">
  <defs>
    <style>
      .cls-1 {
        fill: #a20000;
      }
    </style>
  </defs>
  <g id="out" transform="translate(-46.596 -160.647)">
    <g id="Group_14" data-name="Group 14" transform="translate(46.596 160.647)">
      <path id="Path_71" data-name="Path 71" class="cls-1" d="M673.554,203.691l3.55-3.55c.355-.355,1.576-.355,1.576.384v8.127c0,.742-1.221.742-1.576.384l-3.55-3.547A1.642,1.642,0,0,1,673.554,203.691Z" transform="translate(-673.286 -195.068)"/>
      <path id="Path_72" data-name="Path 72" class="cls-1" d="M2.713,0H13.563V16.276L5.425,21.7V18.989H2.713A2.715,2.715,0,0,1,0,16.276V2.713A2.713,2.713,0,0,1,2.713,0Zm0,16.276H5.426V5.425L9.5,2.713H2.714Z" transform="translate(8.151)"/>
    </g>
  </g>
</svg>
