<svg xmlns="http://www.w3.org/2000/svg" width="19.097" height="19.096" viewBox="0 0 19.097 19.096">
  <defs>
    <style>
      .cls-1 {
        fill: #577287;
      }
    </style>
  </defs>
  <path id="Path_490" data-name="Path 490" class="cls-1" d="M-4586.118-1732.91v8.127a.83.83,0,0,1-.83.83.831.831,0,0,1-.831-.83v-8.127a.831.831,0,0,1,.831-.83A.83.83,0,0,1-4586.118-1732.91Zm-.83-7.768a.83.83,0,0,0,.83-.83v-.711a.83.83,0,0,0-.83-.83.83.83,0,0,0-.831.83v.711A.83.83,0,0,0-4586.947-1740.678Zm-11.65,7.177a2.491,2.491,0,0,1-2.478,2.5,2.491,2.491,0,0,1-2.478-2.5,2.491,2.491,0,0,1,2.478-2.5A2.491,2.491,0,0,1-4598.6-1733.5Zm-1.661,0a.828.828,0,0,0-.817-.837.828.828,0,0,0-.816.837.828.828,0,0,0,.816.837A.828.828,0,0,0-4600.259-1733.5Zm8.731,4.084a2.49,2.49,0,0,1-2.477,2.5,2.491,2.491,0,0,1-2.478-2.5,2.491,2.491,0,0,1,2.478-2.5A2.49,2.49,0,0,1-4591.528-1729.417Zm-1.66,0a.828.828,0,0,0-.816-.838.829.829,0,0,0-.817.838.829.829,0,0,0,.817.838A.828.828,0,0,0-4593.188-1729.417Zm8.731-7.689a2.491,2.491,0,0,1-2.477,2.5,2.491,2.491,0,0,1-2.478-2.5,2.491,2.491,0,0,1,2.478-2.5A2.491,2.491,0,0,1-4584.457-1737.106Zm-1.66,0a.828.828,0,0,0-.817-.837.828.828,0,0,0-.817.837.828.828,0,0,0,.817.837A.828.828,0,0,0-4586.117-1737.106Zm-7.888,11.015a.83.83,0,0,0-.83.83v.478a.83.83,0,0,0,.83.83.83.83,0,0,0,.83-.83v-.478A.83.83,0,0,0-4594-1726.091Zm0-6.848a.83.83,0,0,0,.83-.83v-8.45a.83.83,0,0,0-.83-.83.83.83,0,0,0-.83.83v8.45A.83.83,0,0,0-4594-1732.939Zm-7.058,3.024a.831.831,0,0,0-.83.83v4.3a.831.831,0,0,0,.83.83.831.831,0,0,0,.831-.83v-4.3A.831.831,0,0,0-4601.062-1729.915Zm0-7.131a.83.83,0,0,0,.831-.83v-4.343a.83.83,0,0,0-.831-.83.83.83,0,0,0-.83.83v4.343A.83.83,0,0,0-4601.062-1737.046Z" transform="translate(4603.553 1743.049)"/>
</svg>
