<svg xmlns="http://www.w3.org/2000/svg" width="20.595" height="18.325" viewBox="0 0 20.595 18.325">
  <defs>
    <style>
      .cls-1 {
        fill: #923c3c;
      }
    </style>
  </defs>
  <path id="Path_491" data-name="Path 491" class="cls-1" d="M-4266.726-1888.665v4.53a.915.915,0,0,1-.854.991h-11.681a.947.947,0,0,1-.9-.991v-16.344a.948.948,0,0,1,.9-.991h11.681a.916.916,0,0,1,.854.991v4.53a.947.947,0,0,1-.9.991.946.946,0,0,1-.9-.991v-3.539h-9.85v14.363h9.85v-3.54a.947.947,0,0,1,.9-.99A.947.947,0,0,1-4266.726-1888.665Zm6.9-4.372-3.508-3.919a.835.835,0,0,0-1.266-.007,1.066,1.066,0,0,0-.006,1.4l2,2.237-10.865.029a.946.946,0,0,0-.893.993.947.947,0,0,0,.895.988h0l10.852-.029-1.993,2.227a1.066,1.066,0,0,0,.006,1.4.85.85,0,0,0,.63.287.849.849,0,0,0,.636-.294l3.508-3.919A1.068,1.068,0,0,0-4259.822-1893.038Z" transform="translate(-4259.563 -1883.145) rotate(180)"/>
</svg>
