<svg xmlns="http://www.w3.org/2000/svg" width="18.335" height="18.335" viewBox="0 0 18.335 18.335">
  <defs>
    <style>
      .cls-1 {
        fill: #3d3d3d;
      }
    </style>
  </defs>
  <path id="Path_458" data-name="Path 458" class="cls-1" d="M-4747.713-2218.375a.793.793,0,0,1-.557-.227l-7.813-7.629-7.814,7.629a.8.8,0,0,1-1.127-.013.8.8,0,0,1,.013-1.127l8.371-8.173a.8.8,0,0,1,1.113,0l8.371,8.173a.8.8,0,0,1,.013,1.127A.794.794,0,0,1-4747.713-2218.375Zm-1.745,7.77v-7.789a.8.8,0,0,0-.8-.8.8.8,0,0,0-.8.8v6.992h-2.491v-4.262a1.059,1.059,0,0,0-1.058-1.058h-2.966a1.059,1.059,0,0,0-1.058,1.058v4.262h-2.49v-6.992a.8.8,0,0,0-.8-.8.8.8,0,0,0-.8.8v7.789a.8.8,0,0,0,.8.8h4.085a.8.8,0,0,0,.8-.8v-4.523h1.892v4.523a.8.8,0,0,0,.8.8h4.085A.8.8,0,0,0-4749.458-2210.605Z" transform="translate(4765.251 2228.143)"/>
</svg>
