<svg xmlns="http://www.w3.org/2000/svg" width="19.427" height="19.427" viewBox="0 0 19.427 19.427">
  <defs>
    <style>
      .cls-1 {
        fill: #856823;
      }
    </style>
  </defs>
  <path id="Path_492" data-name="Path 492" class="cls-1" d="M-4988.422-1339.447a.844.844,0,0,0-.776-.771,12.654,12.654,0,0,0-11.548,5.426,4.922,4.922,0,0,0-4,.446,7.393,7.393,0,0,0-2.967,3.306.846.846,0,0,0,.181.971.845.845,0,0,0,.978.137,3.211,3.211,0,0,1,3.789.334l3.724,3.719c.007.008.012.016.019.023a3.2,3.2,0,0,1,.334,3.783.843.843,0,0,0,.136.978.843.843,0,0,0,.611.261.845.845,0,0,0,.359-.08,7.388,7.388,0,0,0,3.309-2.964,4.9,4.9,0,0,0,.44-4.024,14.36,14.36,0,0,0,2.536-2.3A12.132,12.132,0,0,0-4988.422-1339.447Zm-16.542,7.373a3.732,3.732,0,0,1,3.253-1.222,16.068,16.068,0,0,0-.864,1.767A4.681,4.681,0,0,0-5004.964-1332.074Zm8.413,8.411a4.675,4.675,0,0,0-.556-2.409,17.4,17.4,0,0,0,1.776-.876A3.714,3.714,0,0,1-4996.551-1323.663Zm-1.67-3.78-2.977-2.974c1.492-4,5.2-8.267,11.135-8.152C-4989.864-1331.495-4995.705-1328.43-4998.221-1327.443Zm5.458-8.415a1.385,1.385,0,0,1,.4.971,1.382,1.382,0,0,1-.4.97,1.388,1.388,0,0,1-.972.4,1.382,1.382,0,0,1-.969-.4,1.381,1.381,0,0,1-.4-.97,1.383,1.383,0,0,1,.4-.971,1.372,1.372,0,0,1,.969-.4A1.384,1.384,0,0,1-4992.764-1335.859Zm-11.892,8.771a5.184,5.184,0,0,0-1.007,3.289.856.856,0,0,0,.84.854h.027a5.153,5.153,0,0,0,3.251-1.019,2.255,2.255,0,0,0,.725-1.61,2.208,2.208,0,0,0-.68-1.555A2.143,2.143,0,0,0-5004.655-1327.088Zm1.917,1.914a2.363,2.363,0,0,1-1.152.43,2.386,2.386,0,0,1,.429-1.149.622.622,0,0,1,.412-.23.518.518,0,0,1,.356.185.546.546,0,0,1,.185.356A.671.671,0,0,1-5002.738-1325.174Z" transform="translate(5007.796 1340.262)"/>
</svg>
