<svg xmlns="http://www.w3.org/2000/svg" id="pin" width="24.474" height="21.988" viewBox="0 0 24.474 21.988">
    <defs>
        <style>
            .cls-1{fill:#7c61a5}
        </style>
    </defs>
    <path id="Path_392" d="M176.4 64.063a4 4 0 1 0-4-4 4 4 0 0 0 4 4zm0-7.036a3.04 3.04 0 1 1-3.04 3.04 3.044 3.044 0 0 1 3.04-3.04zm0 0" class="cls-1" data-name="Path 392" transform="translate(-164.161 -53.414)"/>
    <path id="Path_393" d="M24.4 21.746l-5.358-8.107a.479.479 0 0 0-.345-.211l-2.16-.243a11.353 11.353 0 0 0 2.353-6.034A6.66 6.66 0 0 0 12.238.5a6.58 6.58 0 0 0-3.017.722.478.478 0 1 0 .434.852 5.634 5.634 0 0 1 2.583-.618 5.7 5.7 0 0 1 5.7 5.7c0 3.549-3.841 7.718-5.687 9.722l-.009.01-.009-.01c-1.846-2-5.687-6.173-5.687-9.722a5.635 5.635 0 0 1 .614-2.588.478.478 0 0 0-.852-.434 6.581 6.581 0 0 0-.722 3.017c0 2.152 1.208 4.434 2.617 6.4L5.6 12.9a.478.478 0 0 0-.477.15l-5 5.761a.478.478 0 0 0 .162.748l6.286 2.881a.477.477 0 0 0 .324.027l7.691-2.079 2.727.612a.478.478 0 0 0 .209-.933L15 19.507l-.46-3.764c.44-.513.9-1.074 1.347-1.669l2.473.278 4.581 6.931-1.691-.378a.478.478 0 0 0-.209.933l2.847.637a.488.488 0 0 0 .1.012.478.478 0 0 0 .4-.742zM5.652 13.9l2.962.739-2.14 6.711-5.215-2.39zm8.393 5.644l-6.558 1.775 1.963-6.15c.769.933 1.512 1.739 2.076 2.352l.359.391a.478.478 0 0 0 .706 0l.359-.391c.224-.243.477-.518.748-.818zm0 0" class="cls-1" data-name="Path 393" transform="translate(-.001 -.499)"/>
    <path id="Path_394" d="M155.144 39.283a.478.478 0 1 0-.323-.83.478.478 0 0 0 .323.83zm0 0" class="cls-1" data-name="Path 394" transform="translate(-147.272 -36.519)"/>
    <path id="Path_395" d="M393.985 418.441a.478.478 0 1 0 .348.58.478.478 0 0 0-.349-.58zm0 0" class="cls-1" data-name="Path 395" transform="translate(-374.586 -398.449)"/>
</svg>
