<svg xmlns="http://www.w3.org/2000/svg" id="schedule" width="57.203" height="55.486" viewBox="0 0 57.203 55.486">
    <defs>
        <style>
            .cls-1{fill:#287db2}
        </style>
    </defs>
    <path id="Path_409" d="M55.261 207.133H49.68a1.117 1.117 0 0 0 0 2.235h5.581a1.117 1.117 0 0 0 0-2.235zm0 0" class="cls-1" data-name="Path 409" transform="translate(-43.137 -184.047)"/>
    <path id="Path_410" d="M158.113 209.368h5.581a1.117 1.117 0 0 0 0-2.235h-5.581a1.117 1.117 0 0 0 0 2.235zm0 0" class="cls-1" data-name="Path 410" transform="translate(-139.456 -184.047)"/>
    <path id="Path_411" d="M266.551 209.368h5.581a1.117 1.117 0 0 0 0-2.235h-5.581a1.117 1.117 0 0 0 0 2.235zm0 0" class="cls-1" data-name="Path 411" transform="translate(-235.778 -184.047)"/>
    <path id="Path_412" d="M55.261 277.563H49.68a1.117 1.117 0 0 0 0 2.235h5.581a1.117 1.117 0 0 0 0-2.235zm0 0" class="cls-1" data-name="Path 412" transform="translate(-43.137 -246.608)"/>
    <path id="Path_413" d="M158.113 279.8h5.581a1.117 1.117 0 0 0 0-2.235h-5.581a1.117 1.117 0 0 0 0 2.235zm0 0" class="cls-1" data-name="Path 413" transform="translate(-139.456 -246.608)"/>
    <path id="Path_414" d="M266.551 279.8h5.581a1.117 1.117 0 0 0 0-2.235h-5.581a1.117 1.117 0 0 0 0 2.235zm0 0" class="cls-1" data-name="Path 414" transform="translate(-235.778 -246.608)"/>
    <path id="Path_415" d="M269.212 148.617a1.117 1.117 0 0 0 0-2.234 1.117 1.117 0 0 0 0 2.234zm0 0" class="cls-1" data-name="Path 415" transform="translate(-238.14 -130.084)"/>
    <path id="Path_416" d="M56.344 21.507a2.724 2.724 0 0 0-2.434-.7l-6.663 1.339a2.741 2.741 0 0 0-2.1 1.937 2.949 2.949 0 0 0 1.047 3.038l-3.3 3.529V10.86a5.4 5.4 0 0 0-4.309-5.286 17.7 17.7 0 0 0-3.231-.11v-.38a4.583 4.583 0 1 0-9.166 0v.381h-9.481a4.678 4.678 0 0 0-1.342-3.621 4.59 4.59 0 0 0-7.823 3.24v.381H5.4A5.4 5.4 0 0 0 0 10.86v33.124a4.292 4.292 0 0 0 4.17 4.285L2.31 50.23a3.409 3.409 0 1 0 4.948 4.691l6.3-6.649h7.943l4.185 4.523a3.412 3.412 0 0 0 4.063 1.056c1.037-.449 1.22-1.016 5.659-5.579h3.2a4.292 4.292 0 0 0 4.292-4.288V40.4l8.2-8.632a3.068 3.068 0 0 0 3.283 1.064 2.743 2.743 0 0 0 1.82-2.205l.972-6.725a2.755 2.755 0 0 0-.831-2.392zM28.425 5.084a2.348 2.348 0 1 1 4.7 0v3a2.348 2.348 0 1 1-4.7 0v-3zm-18.649 0a2.35 2.35 0 0 1 4.009-1.66c1.007 1 .6 2.163.688 3.158v1.5a2.349 2.349 0 1 1-4.7 0v-3zM4.287 46.037a2.055 2.055 0 0 1-2.053-2.053V19.033H26.6a1.117 1.117 0 0 0 0-2.235H2.235V10.86A3.164 3.164 0 0 1 5.4 7.7h2.141v.38a4.583 4.583 0 1 0 9.166 0V7.7h9.483v.38a4.583 4.583 0 1 0 9.166 0V7.7H37.5a3.164 3.164 0 0 1 3.161 3.161V16.8h-5.123a1.117 1.117 0 1 0 0 2.235h5.124v14.006L29.612 44.87a1.106 1.106 0 0 1-1.621-.006l-7.466-8.107a3.409 3.409 0 0 0-5.182-.274l-9.058 9.554zm11.394 0c1.747-1.783 1.678-1.884 1.9-1.885s.2.151 1.857 1.885zm24.981-2.053a2.055 2.055 0 0 1-2.052 2.053h-1.074l3.126-3.289zm14.3-20.405l-.971 6.721a.516.516 0 0 1-.867.3l-1.3-1.229a1.118 1.118 0 0 0-1.578.041L34.123 46.385l-4.881 5.136a1.322 1.322 0 0 1-.954.323 1.5 1.5 0 0 1-.917-.526l-8.957-9.681a1.116 1.116 0 0 0-.813-.358c-.634-.007-.86.4-1.83 1.416L5.637 53.384a1.175 1.175 0 0 1-1.706-1.617l13.033-13.746a1.168 1.168 0 0 1 .927-.364c.748.047.161-.179 8.456 8.722a3.341 3.341 0 0 0 4.9.017l17.337-18.562a1.117 1.117 0 0 0-.048-1.574l-1.1-1.043a.516.516 0 0 1 .254-.882L54.351 23a.516.516 0 0 1 .614.581zm0 0" class="cls-1" data-name="Path 416" transform="translate(0 -.499)"/>
</svg>
