<svg xmlns="http://www.w3.org/2000/svg" width="18.683" height="17.674" viewBox="0 0 18.683 17.674">
  <defs>
    <style>
      .cls-1 {
        fill: #fff;
      }
    </style>
  </defs>
  <g id="Symbol_5_1" data-name="Symbol 5 – 1" transform="translate(-293 -597.543)">
    <path id="Path_77" data-name="Path 77" class="cls-1" d="M-6406.218-2225.931h-3.469v-1.1a.543.543,0,0,0-.534-.552h-1.068a.542.542,0,0,0-.533.552v1.1h-12.011a.543.543,0,0,0-.534.553v1.1a.544.544,0,0,0,.534.552h12.011v1.1a.543.543,0,0,0,.533.552h1.068a.544.544,0,0,0,.534-.552v-1.1h3.469a.544.544,0,0,0,.535-.552v-1.1A.544.544,0,0,0-6406.218-2225.931Z" transform="translate(6717.366 2825.131)"/>
    <path id="Path_78" data-name="Path 78" class="cls-1" d="M-6406.218-2214.931h-13.612v-1.1a.543.543,0,0,0-.534-.552h-1.067a.544.544,0,0,0-.534.552v1.1h-1.868a.543.543,0,0,0-.534.552v1.1a.544.544,0,0,0,.534.552h1.868v1.1a.544.544,0,0,0,.534.552h1.067a.543.543,0,0,0,.534-.552v-1.1h13.612a.544.544,0,0,0,.535-.552v-1.1A.544.544,0,0,0-6406.218-2214.931Z" transform="translate(6717.366 2820.206)"/>
    <path id="Path_79" data-name="Path 79" class="cls-1" d="M-6406.218-2203.931h-7.74v-1.1a.543.543,0,0,0-.534-.552h-1.068a.543.543,0,0,0-.533.552v1.1h-7.74a.543.543,0,0,0-.534.552v1.1a.544.544,0,0,0,.534.552h7.74v1.1a.543.543,0,0,0,.533.552h1.068a.543.543,0,0,0,.534-.552v-1.1h7.74a.544.544,0,0,0,.535-.552v-1.1A.543.543,0,0,0-6406.218-2203.931Z" transform="translate(6717.366 2815.282)"/>
  </g>
</svg>
