<svg xmlns="http://www.w3.org/2000/svg" width="20.725" height="22.112" viewBox="0 0 20.725 22.112">
  <defs>
    <style>
      .cls-1 {
        fill: #310c61;
      }
    </style>
  </defs>
  <g id="Symbol_1_1" data-name="Symbol 1 – 1" transform="translate(-49 -159)">
    <path id="Path_62" data-name="Path 62" class="cls-1" d="M1666.378-3322.38h-8.288v12.437h8.288a.692.692,0,0,0,.691-.7v-11.05A.687.687,0,0,0,1666.378-3322.38Zm-4.834,6.906h-1.381v-1.381h1.381Zm0-2.762h-1.381v-1.381h1.381Zm2.762,2.762h-1.381v-1.381h1.381Zm0-2.762h-1.381v-1.381h1.381Z" transform="translate(-1609.09 3491.054)"/>
    <path id="Path_63" data-name="Path 63" class="cls-1" d="M1676.036-3339.75h-11.056a.687.687,0,0,0-.691.691v7.6h6.021a.861.861,0,0,1,.885.841v1.922l1.381-1.381v-3.459a.694.694,0,0,1,.691-.691h3.459v-4.834A.691.691,0,0,0,1676.036-3339.75Zm-7.6,6.906h-1.381v-1.381h1.381Zm0-2.762h-1.381v-1.381h1.381Zm2.762,2.762h-1.381v-1.381h1.381Zm0-2.762h-1.381v-1.381h1.381Zm2.768,0h-1.387v-1.381h1.387Z" transform="translate(-1611.837 3498.75)"/>
    <path id="Path_64" data-name="Path 64" class="cls-1" d="M1680.149-3327.35a.691.691,0,0,0-.691.691v2.395L1677-3321.7a.682.682,0,0,0-.312.573v8.288a.7.7,0,0,0,.691.7h9.674v-15.205Zm4.834,11.056h-2.763v-2.762h2.763Zm0-5.525h-2.763v-2.762h2.763Z" transform="translate(-1617.33 3493.256)"/>
  </g>
</svg>
