<svg xmlns="http://www.w3.org/2000/svg" width="21.031" height="17.088" viewBox="0 0 21.031 17.088">
  <defs>
    <style>
      .cls-1 {
        fill: #310c61;
      }
    </style>
  </defs>
  <g id="Symbol_2_1" data-name="Symbol 2 – 1" transform="translate(-48.969 -160.349)">
    <path id="Path_65" data-name="Path 65" class="cls-1" d="M2026-2745.548h-5.258v.657a1.973,1.973,0,0,1-1.971,1.971h-3.943a1.974,1.974,0,0,1-1.972-1.971v-.657H2007.6a1.316,1.316,0,0,0-1.314,1.315v11.83a1.3,1.3,0,0,0,1.314,1.314H2026a1.3,1.3,0,0,0,1.314-1.314v-11.83A1.3,1.3,0,0,0,2026-2745.548Zm-13.8,3.943a1.974,1.974,0,0,1,1.971,1.972,1.973,1.973,0,0,1-1.971,1.971,1.974,1.974,0,0,1-1.972-1.971A1.974,1.974,0,0,1,2012.2-2741.6Zm3.286,7.23a.656.656,0,0,1-.657.657h-5.258a.657.657,0,0,1-.657-.657v-1.314a.656.656,0,0,1,.348-.58,6.236,6.236,0,0,1,5.876,0,.656.656,0,0,1,.348.58Zm7.23-.658h-5.258a.656.656,0,0,1-.657-.657.657.657,0,0,1,.657-.658h5.258a.657.657,0,0,1,.657.658A.657.657,0,0,1,2022.715-2735.033Zm0-2.629h-5.258a.656.656,0,0,1-.657-.657.657.657,0,0,1,.657-.658h5.258a.657.657,0,0,1,.657.658A.657.657,0,0,1,2022.715-2737.662Z" transform="translate(-1957.316 2908.526)"/>
    <path id="Path_66" data-name="Path 66" class="cls-1" d="M2021.828-2746.567h3.943a.657.657,0,0,0,.657-.657v-.658a2.632,2.632,0,0,0-2.629-2.629,2.632,2.632,0,0,0-2.629,2.629v.658A.657.657,0,0,0,2021.828-2746.567Z" transform="translate(-1964.315 2910.859)"/>
  </g>
</svg>
