<svg xmlns="http://www.w3.org/2000/svg" width="19.799" height="20.201" viewBox="0 0 19.799 20.201">
    <defs>
        <style>
            .cls-1{fill:none}.cls-2{clip-path:url(#clip-path)}.cls-3{fill:#888abf}.cls-4{fill:#94d1c6}.cls-5{fill:#5caa9c}
        </style>
        <clipPath id="clip-path">
            <path d="M0 0h19.799v20.201H0z" class="cls-1"/>
        </clipPath>
    </defs>
    <g id="telephone" class="cls-2">
        <g id="Group_61" data-name="Group 61">
            <path id="Path_187" d="M14.314 10.647a1.319 1.319 0 0 0-1.994 0c-.466.462-.932.925-1.391 1.395a.275.275 0 0 1-.384.071c-.3-.165-.623-.3-.913-.478a14.464 14.464 0 0 1-3.487-3.174 8.261 8.261 0 0 1-1.25-2 .287.287 0 0 1 .071-.368c.466-.451.921-.913 1.379-1.375a1.324 1.324 0 0 0 0-2.041c-.364-.368-.729-.729-1.093-1.1S4.5.821 4.12.449a1.328 1.328 0 0 0-1.994 0c-.47.462-.921.936-1.4 1.391a2.27 2.27 0 0 0-.712 1.536 6.49 6.49 0 0 0 .5 2.793 16.975 16.975 0 0 0 3.013 5.019A18.645 18.645 0 0 0 9.7 16.019a8.93 8.93 0 0 0 3.42 1 2.507 2.507 0 0 0 2.151-.819c.4-.447.85-.854 1.273-1.281a1.333 1.333 0 0 0 .008-2.029q-1.113-1.128-2.238-2.243z" class="cls-3" data-name="Path 187" transform="translate(0 3.181)"/>
            <path id="Path_188" d="M5.157 7.064l1.756-.313A8.32 8.32 0 0 0 4.72 2.33 7.687 7.687 0 0 0 .247 0L0 1.843a5.964 5.964 0 0 1 3.464 1.8 6.42 6.42 0 0 1 1.693 3.421z" class="cls-4" data-name="Path 188" transform="translate(8.601 4.667)"/>
            <path id="Path_189" d="M7.639 3.88A12.667 12.667 0 0 0 .246 0L0 1.85A10.983 10.983 0 0 1 6.388 5.2a11.976 11.976 0 0 1 3.132 6.361l1.749-.314a13.924 13.924 0 0 0-3.63-7.367z" class="cls-5" data-name="Path 189" transform="translate(8.53)"/>
        </g>
    </g>
</svg>
